<mxfile host="Electron" agent="Mozilla/5.0 (Windows NT 10.0; Win64; x64) AppleWebKit/537.36 (KHTML, like Gecko) draw.io/26.1.1 Chrome/132.0.6834.210 Electron/34.3.3 Safari/537.36" version="26.1.1">
  <diagram name="Page-1" id="onUNG9fZ0vNOkvNhoe7k">
    <mxGraphModel dx="1434" dy="844" grid="1" gridSize="10" guides="1" tooltips="1" connect="1" arrows="1" fold="1" page="1" pageScale="1" pageWidth="1600" pageHeight="1200" math="0" shadow="0">
      <root>
        <mxCell id="0" />
        <mxCell id="1" parent="0" />
        <mxCell id="6TH_nLrkZQTAX3XX6-Od-1" value="Data Flow Diagram" style="text;html=1;align=center;verticalAlign=middle;whiteSpace=wrap;rounded=0;fontSize=21;fontStyle=1" vertex="1" parent="1">
          <mxGeometry x="110" y="40" width="210" height="30" as="geometry" />
        </mxCell>
        <mxCell id="6TH_nLrkZQTAX3XX6-Od-2" value="" style="rounded=0;whiteSpace=wrap;html=1;dashed=1;gradientColor=none;fillColor=none;" vertex="1" parent="1">
          <mxGeometry x="210" y="240" width="200" height="560" as="geometry" />
        </mxCell>
        <mxCell id="6TH_nLrkZQTAX3XX6-Od-3" value="&lt;font style=&quot;font-size: 19px;&quot;&gt;Sources&lt;/font&gt;" style="rounded=0;whiteSpace=wrap;html=1;strokeColor=none;" vertex="1" parent="1">
          <mxGeometry x="250" y="210" width="120" height="40" as="geometry" />
        </mxCell>
        <mxCell id="6TH_nLrkZQTAX3XX6-Od-4" style="edgeStyle=orthogonalEdgeStyle;rounded=0;orthogonalLoop=1;jettySize=auto;html=1;entryX=0;entryY=0.5;entryDx=0;entryDy=0;" edge="1" parent="1" source="6TH_nLrkZQTAX3XX6-Od-6" target="6TH_nLrkZQTAX3XX6-Od-13">
          <mxGeometry relative="1" as="geometry" />
        </mxCell>
        <mxCell id="6TH_nLrkZQTAX3XX6-Od-5" style="edgeStyle=orthogonalEdgeStyle;rounded=0;orthogonalLoop=1;jettySize=auto;html=1;entryX=0;entryY=0.5;entryDx=0;entryDy=0;" edge="1" parent="1" source="6TH_nLrkZQTAX3XX6-Od-6" target="6TH_nLrkZQTAX3XX6-Od-15">
          <mxGeometry relative="1" as="geometry" />
        </mxCell>
        <mxCell id="6TH_nLrkZQTAX3XX6-Od-6" value="&lt;font style=&quot;font-size: 16px;&quot;&gt;&lt;b style=&quot;&quot;&gt;CRM&lt;/b&gt;&lt;/font&gt;" style="image;aspect=fixed;html=1;points=[];align=center;fontSize=12;image=img/lib/azure2/general/Folder_Blank.svg;" vertex="1" parent="1">
          <mxGeometry x="275.5" y="393.83" width="64.5" height="52.35" as="geometry" />
        </mxCell>
        <mxCell id="6TH_nLrkZQTAX3XX6-Od-7" style="edgeStyle=orthogonalEdgeStyle;rounded=0;orthogonalLoop=1;jettySize=auto;html=1;entryX=0;entryY=0.5;entryDx=0;entryDy=0;" edge="1" parent="1" source="6TH_nLrkZQTAX3XX6-Od-8" target="6TH_nLrkZQTAX3XX6-Od-19">
          <mxGeometry relative="1" as="geometry" />
        </mxCell>
        <mxCell id="6TH_nLrkZQTAX3XX6-Od-8" value="&lt;font style=&quot;font-size: 16px;&quot;&gt;&lt;b style=&quot;&quot;&gt;ERP&lt;/b&gt;&lt;/font&gt;" style="image;aspect=fixed;html=1;points=[];align=center;fontSize=12;image=img/lib/azure2/general/Folder_Blank.svg;" vertex="1" parent="1">
          <mxGeometry x="273.25" y="642" width="69" height="56.00000000000001" as="geometry" />
        </mxCell>
        <mxCell id="6TH_nLrkZQTAX3XX6-Od-9" value="" style="rounded=1;whiteSpace=wrap;html=1;fillColor=none;strokeColor=light-dark(#eeb7b5, #d7817e);" vertex="1" parent="1">
          <mxGeometry x="490" y="290" width="200" height="510" as="geometry" />
        </mxCell>
        <mxCell id="6TH_nLrkZQTAX3XX6-Od-10" value="&lt;font style=&quot;font-size: 16px;&quot;&gt;&lt;b style=&quot;&quot;&gt;Bronze Layer&lt;/b&gt;&lt;/font&gt;" style="rounded=1;whiteSpace=wrap;html=1;fillColor=#f8cecc;strokeColor=#b85450;" vertex="1" parent="1">
          <mxGeometry x="490" y="240" width="200" height="40" as="geometry" />
        </mxCell>
        <mxCell id="6TH_nLrkZQTAX3XX6-Od-11" value="&lt;font style=&quot;font-size: 14px;&quot;&gt;crm_sales_details&lt;/font&gt;" style="rounded=1;whiteSpace=wrap;html=1;fillColor=#f8cecc;strokeColor=#b85450;" vertex="1" parent="1">
          <mxGeometry x="500" y="330" width="180" height="40" as="geometry" />
        </mxCell>
        <mxCell id="6TH_nLrkZQTAX3XX6-Od-12" style="edgeStyle=orthogonalEdgeStyle;rounded=0;orthogonalLoop=1;jettySize=auto;html=1;entryX=0;entryY=0.5;entryDx=0;entryDy=0;" edge="1" parent="1" source="6TH_nLrkZQTAX3XX6-Od-13" target="6TH_nLrkZQTAX3XX6-Od-28">
          <mxGeometry relative="1" as="geometry" />
        </mxCell>
        <mxCell id="6TH_nLrkZQTAX3XX6-Od-13" value="&lt;font style=&quot;font-size: 14px;&quot;&gt;crm_cust_info&lt;/font&gt;" style="rounded=1;whiteSpace=wrap;html=1;fillColor=#f8cecc;strokeColor=#b85450;" vertex="1" parent="1">
          <mxGeometry x="500" y="400" width="180" height="40" as="geometry" />
        </mxCell>
        <mxCell id="6TH_nLrkZQTAX3XX6-Od-14" style="edgeStyle=orthogonalEdgeStyle;rounded=0;orthogonalLoop=1;jettySize=auto;html=1;" edge="1" parent="1" source="6TH_nLrkZQTAX3XX6-Od-15" target="6TH_nLrkZQTAX3XX6-Od-29">
          <mxGeometry relative="1" as="geometry" />
        </mxCell>
        <mxCell id="6TH_nLrkZQTAX3XX6-Od-15" value="&lt;font style=&quot;font-size: 14px;&quot;&gt;crm_prd_info&lt;/font&gt;" style="rounded=1;whiteSpace=wrap;html=1;fillColor=#f8cecc;strokeColor=#b85450;" vertex="1" parent="1">
          <mxGeometry x="500" y="470" width="180" height="40" as="geometry" />
        </mxCell>
        <mxCell id="6TH_nLrkZQTAX3XX6-Od-16" style="edgeStyle=orthogonalEdgeStyle;rounded=0;orthogonalLoop=1;jettySize=auto;html=1;entryX=0;entryY=0.5;entryDx=0;entryDy=0;" edge="1" parent="1" source="6TH_nLrkZQTAX3XX6-Od-17" target="6TH_nLrkZQTAX3XX6-Od-30">
          <mxGeometry relative="1" as="geometry" />
        </mxCell>
        <mxCell id="6TH_nLrkZQTAX3XX6-Od-17" value="&lt;font style=&quot;font-size: 14px;&quot;&gt;erp_cust_az12&lt;/font&gt;" style="rounded=1;whiteSpace=wrap;html=1;fillColor=#f8cecc;strokeColor=#b85450;" vertex="1" parent="1">
          <mxGeometry x="500" y="580" width="180" height="40" as="geometry" />
        </mxCell>
        <mxCell id="6TH_nLrkZQTAX3XX6-Od-18" style="edgeStyle=orthogonalEdgeStyle;rounded=0;orthogonalLoop=1;jettySize=auto;html=1;entryX=0;entryY=0.5;entryDx=0;entryDy=0;" edge="1" parent="1" source="6TH_nLrkZQTAX3XX6-Od-19" target="6TH_nLrkZQTAX3XX6-Od-31">
          <mxGeometry relative="1" as="geometry" />
        </mxCell>
        <mxCell id="6TH_nLrkZQTAX3XX6-Od-19" value="&lt;font style=&quot;font-size: 14px;&quot;&gt;erp_loc_a101&lt;/font&gt;" style="rounded=1;whiteSpace=wrap;html=1;fillColor=#f8cecc;strokeColor=#b85450;" vertex="1" parent="1">
          <mxGeometry x="500" y="650" width="180" height="40" as="geometry" />
        </mxCell>
        <mxCell id="6TH_nLrkZQTAX3XX6-Od-20" style="edgeStyle=orthogonalEdgeStyle;rounded=0;orthogonalLoop=1;jettySize=auto;html=1;entryX=0;entryY=0.5;entryDx=0;entryDy=0;" edge="1" parent="1" source="6TH_nLrkZQTAX3XX6-Od-21" target="6TH_nLrkZQTAX3XX6-Od-32">
          <mxGeometry relative="1" as="geometry" />
        </mxCell>
        <mxCell id="6TH_nLrkZQTAX3XX6-Od-21" value="&lt;font style=&quot;font-size: 14px;&quot;&gt;erp_px_cat_g1v2&lt;/font&gt;" style="rounded=1;whiteSpace=wrap;html=1;fillColor=#f8cecc;strokeColor=#b85450;" vertex="1" parent="1">
          <mxGeometry x="500" y="730" width="180" height="40" as="geometry" />
        </mxCell>
        <mxCell id="6TH_nLrkZQTAX3XX6-Od-22" style="edgeStyle=orthogonalEdgeStyle;rounded=0;orthogonalLoop=1;jettySize=auto;html=1;entryX=0;entryY=0.25;entryDx=0;entryDy=0;" edge="1" parent="1" source="6TH_nLrkZQTAX3XX6-Od-8" target="6TH_nLrkZQTAX3XX6-Od-17">
          <mxGeometry relative="1" as="geometry" />
        </mxCell>
        <mxCell id="6TH_nLrkZQTAX3XX6-Od-23" style="edgeStyle=orthogonalEdgeStyle;rounded=0;orthogonalLoop=1;jettySize=auto;html=1;entryX=0;entryY=0.75;entryDx=0;entryDy=0;" edge="1" parent="1" source="6TH_nLrkZQTAX3XX6-Od-8" target="6TH_nLrkZQTAX3XX6-Od-21">
          <mxGeometry relative="1" as="geometry" />
        </mxCell>
        <mxCell id="6TH_nLrkZQTAX3XX6-Od-24" style="edgeStyle=orthogonalEdgeStyle;rounded=0;orthogonalLoop=1;jettySize=auto;html=1;entryX=0;entryY=0.5;entryDx=0;entryDy=0;" edge="1" parent="1" source="6TH_nLrkZQTAX3XX6-Od-6" target="6TH_nLrkZQTAX3XX6-Od-11">
          <mxGeometry relative="1" as="geometry" />
        </mxCell>
        <mxCell id="6TH_nLrkZQTAX3XX6-Od-25" value="" style="rounded=1;whiteSpace=wrap;html=1;fillColor=none;strokeColor=#666666;fontColor=#333333;" vertex="1" parent="1">
          <mxGeometry x="770" y="290" width="200" height="510" as="geometry" />
        </mxCell>
        <mxCell id="6TH_nLrkZQTAX3XX6-Od-26" value="&lt;font style=&quot;font-size: 16px;&quot;&gt;&lt;b style=&quot;&quot;&gt;Silver Layer&lt;/b&gt;&lt;/font&gt;" style="rounded=1;whiteSpace=wrap;html=1;fillColor=#f5f5f5;strokeColor=#666666;fontColor=#333333;" vertex="1" parent="1">
          <mxGeometry x="770" y="240" width="200" height="40" as="geometry" />
        </mxCell>
        <mxCell id="6TH_nLrkZQTAX3XX6-Od-27" value="&lt;font style=&quot;font-size: 14px;&quot;&gt;crm_sales_details&lt;/font&gt;" style="rounded=1;whiteSpace=wrap;html=1;fillColor=#f5f5f5;strokeColor=#666666;fontColor=#333333;" vertex="1" parent="1">
          <mxGeometry x="780" y="330" width="180" height="40" as="geometry" />
        </mxCell>
        <mxCell id="6TH_nLrkZQTAX3XX6-Od-28" value="&lt;font style=&quot;font-size: 14px;&quot;&gt;crm_cust_info&lt;/font&gt;" style="rounded=1;whiteSpace=wrap;html=1;fillColor=#f5f5f5;strokeColor=#666666;fontColor=#333333;" vertex="1" parent="1">
          <mxGeometry x="780" y="400" width="180" height="40" as="geometry" />
        </mxCell>
        <mxCell id="6TH_nLrkZQTAX3XX6-Od-29" value="&lt;font style=&quot;font-size: 14px;&quot;&gt;crm_prd_info&lt;/font&gt;" style="rounded=1;whiteSpace=wrap;html=1;fillColor=#f5f5f5;strokeColor=#666666;fontColor=#333333;" vertex="1" parent="1">
          <mxGeometry x="780" y="470" width="180" height="40" as="geometry" />
        </mxCell>
        <mxCell id="6TH_nLrkZQTAX3XX6-Od-30" value="&lt;font style=&quot;font-size: 14px;&quot;&gt;erp_cust_az12&lt;/font&gt;" style="rounded=1;whiteSpace=wrap;html=1;fillColor=#f5f5f5;strokeColor=#666666;fontColor=#333333;" vertex="1" parent="1">
          <mxGeometry x="780" y="580" width="180" height="40" as="geometry" />
        </mxCell>
        <mxCell id="6TH_nLrkZQTAX3XX6-Od-31" value="&lt;font style=&quot;font-size: 14px;&quot;&gt;erp_loc_a101&lt;/font&gt;" style="rounded=1;whiteSpace=wrap;html=1;fillColor=#f5f5f5;strokeColor=#666666;fontColor=#333333;" vertex="1" parent="1">
          <mxGeometry x="780" y="650" width="180" height="40" as="geometry" />
        </mxCell>
        <mxCell id="6TH_nLrkZQTAX3XX6-Od-32" value="&lt;font style=&quot;font-size: 14px;&quot;&gt;erp_px_cat_g1v2&lt;/font&gt;" style="rounded=1;whiteSpace=wrap;html=1;fillColor=#f5f5f5;strokeColor=#666666;fontColor=#333333;" vertex="1" parent="1">
          <mxGeometry x="780" y="730" width="180" height="40" as="geometry" />
        </mxCell>
        <mxCell id="6TH_nLrkZQTAX3XX6-Od-33" style="edgeStyle=orthogonalEdgeStyle;rounded=0;orthogonalLoop=1;jettySize=auto;html=1;" edge="1" parent="1" source="6TH_nLrkZQTAX3XX6-Od-11">
          <mxGeometry relative="1" as="geometry">
            <mxPoint x="780" y="350" as="targetPoint" />
          </mxGeometry>
        </mxCell>
        <mxCell id="6TH_nLrkZQTAX3XX6-Od-34" value="" style="rounded=1;whiteSpace=wrap;html=1;fillColor=none;strokeColor=#d6b656;gradientColor=none;" vertex="1" parent="1">
          <mxGeometry x="1080" y="290" width="200" height="510" as="geometry" />
        </mxCell>
        <mxCell id="6TH_nLrkZQTAX3XX6-Od-35" value="&lt;font style=&quot;font-size: 16px;&quot;&gt;&lt;b style=&quot;&quot;&gt;Gold Layer&lt;/b&gt;&lt;/font&gt;" style="rounded=1;whiteSpace=wrap;html=1;fillColor=#fff2cc;strokeColor=#d6b656;gradientColor=none;" vertex="1" parent="1">
          <mxGeometry x="1080" y="240" width="200" height="40" as="geometry" />
        </mxCell>
        <mxCell id="6TH_nLrkZQTAX3XX6-Od-36" value="&lt;font style=&quot;font-size: 14px;&quot;&gt;fact_sales&lt;/font&gt;" style="rounded=1;whiteSpace=wrap;html=1;fillColor=#fff2cc;strokeColor=#d6b656;gradientColor=none;" vertex="1" parent="1">
          <mxGeometry x="1090" y="353.83" width="180" height="40" as="geometry" />
        </mxCell>
        <mxCell id="6TH_nLrkZQTAX3XX6-Od-37" value="&lt;font style=&quot;font-size: 14px;&quot;&gt;dim_customers&lt;/font&gt;" style="rounded=1;whiteSpace=wrap;html=1;fillColor=#fff2cc;strokeColor=#d6b656;gradientColor=none;" vertex="1" parent="1">
          <mxGeometry x="1090" y="490" width="180" height="40" as="geometry" />
        </mxCell>
        <mxCell id="6TH_nLrkZQTAX3XX6-Od-38" value="&lt;font style=&quot;font-size: 14px;&quot;&gt;dim_products&lt;/font&gt;" style="rounded=1;whiteSpace=wrap;html=1;fillColor=#fff2cc;strokeColor=#d6b656;gradientColor=none;" vertex="1" parent="1">
          <mxGeometry x="1090" y="560" width="180" height="40" as="geometry" />
        </mxCell>
        <mxCell id="6TH_nLrkZQTAX3XX6-Od-39" value="" style="endArrow=classic;html=1;rounded=0;entryX=0;entryY=0.5;entryDx=0;entryDy=0;exitX=1;exitY=0.5;exitDx=0;exitDy=0;" edge="1" parent="1" source="6TH_nLrkZQTAX3XX6-Od-27" target="6TH_nLrkZQTAX3XX6-Od-36">
          <mxGeometry width="50" height="50" relative="1" as="geometry">
            <mxPoint x="990" y="400" as="sourcePoint" />
            <mxPoint x="1040" y="350" as="targetPoint" />
          </mxGeometry>
        </mxCell>
        <mxCell id="6TH_nLrkZQTAX3XX6-Od-40" value="" style="endArrow=classic;html=1;rounded=0;entryX=0;entryY=0.5;entryDx=0;entryDy=0;exitX=1;exitY=0.5;exitDx=0;exitDy=0;jumpStyle=gap;" edge="1" parent="1" source="6TH_nLrkZQTAX3XX6-Od-28" target="6TH_nLrkZQTAX3XX6-Od-37">
          <mxGeometry width="50" height="50" relative="1" as="geometry">
            <mxPoint x="1000" y="460" as="sourcePoint" />
            <mxPoint x="1050" y="410" as="targetPoint" />
          </mxGeometry>
        </mxCell>
        <mxCell id="6TH_nLrkZQTAX3XX6-Od-41" value="" style="endArrow=classic;html=1;rounded=0;entryX=0;entryY=0.5;entryDx=0;entryDy=0;exitX=1;exitY=0.5;exitDx=0;exitDy=0;jumpStyle=gap;" edge="1" parent="1" source="6TH_nLrkZQTAX3XX6-Od-30" target="6TH_nLrkZQTAX3XX6-Od-37">
          <mxGeometry width="50" height="50" relative="1" as="geometry">
            <mxPoint x="1000" y="610" as="sourcePoint" />
            <mxPoint x="1050" y="560" as="targetPoint" />
          </mxGeometry>
        </mxCell>
        <mxCell id="6TH_nLrkZQTAX3XX6-Od-42" value="" style="endArrow=classic;html=1;rounded=0;exitX=1;exitY=0.5;exitDx=0;exitDy=0;entryX=0;entryY=0.5;entryDx=0;entryDy=0;jumpStyle=gap;" edge="1" parent="1" source="6TH_nLrkZQTAX3XX6-Od-31" target="6TH_nLrkZQTAX3XX6-Od-37">
          <mxGeometry width="50" height="50" relative="1" as="geometry">
            <mxPoint x="1010" y="650" as="sourcePoint" />
            <mxPoint x="1060" y="600" as="targetPoint" />
          </mxGeometry>
        </mxCell>
        <mxCell id="6TH_nLrkZQTAX3XX6-Od-43" value="" style="endArrow=classic;html=1;rounded=0;entryX=0;entryY=0.5;entryDx=0;entryDy=0;exitX=1;exitY=0.5;exitDx=0;exitDy=0;jumpStyle=gap;" edge="1" parent="1" source="6TH_nLrkZQTAX3XX6-Od-32" target="6TH_nLrkZQTAX3XX6-Od-38">
          <mxGeometry width="50" height="50" relative="1" as="geometry">
            <mxPoint x="1000" y="720" as="sourcePoint" />
            <mxPoint x="1050" y="670" as="targetPoint" />
          </mxGeometry>
        </mxCell>
        <mxCell id="6TH_nLrkZQTAX3XX6-Od-44" value="" style="endArrow=classic;html=1;rounded=0;entryX=0;entryY=0.5;entryDx=0;entryDy=0;exitX=1;exitY=0.5;exitDx=0;exitDy=0;jumpStyle=gap;" edge="1" parent="1" source="6TH_nLrkZQTAX3XX6-Od-29" target="6TH_nLrkZQTAX3XX6-Od-38">
          <mxGeometry width="50" height="50" relative="1" as="geometry">
            <mxPoint x="990" y="550" as="sourcePoint" />
            <mxPoint x="1040" y="500" as="targetPoint" />
          </mxGeometry>
        </mxCell>
      </root>
    </mxGraphModel>
  </diagram>
</mxfile>
